<?xml version="1.0" encoding="utf-8"?>
<!-- Generator: Adobe Illustrator 18.1.1, SVG Export Plug-In . SVG Version: 6.00 Build 0)  -->
<svg version="1.1" id="Capa_1" xmlns="http://www.w3.org/2000/svg" xmlns:xlink="http://www.w3.org/1999/xlink" x="0px" y="0px"
	 viewBox="0 0 800 413.1" enable-background="new 0 0 800 413.1" xml:space="preserve">
<g>
	<path fill="#313280" d="M593.9,352.6l-14.5-55.3h-14.3l-1.4-1.4c-6.2-5.8-10.4-12.7-12.3-20.5c-1.8-7.2-2.7-14.1-2.7-20.4
		c0-4.7,1.8-12.3,5.4-23.1c1.4-4.1,3-8.5,4.8-13.1l-45-172.1l-0.4-1.5l-1.5-0.3c-4.6-0.9-10.5-1.4-17.5-1.4
		c-9.6,0-15.1,2.8-16.3,8.1l-80.2,310l2.8,0.4c4.2,0.6,8.6,1,13,1.1c4.3,0.2,7.7,0.2,10.1,0.2c10.2,0,13.2-1.2,14.8-2.2
		c2.3-1.5,3.9-3.8,4.6-6.9l17-71.3h72.8l19.1,79.3l1.7,0.2c4.6,0.6,8.7,0.9,12.4,0.9h9.4c10.3,0,13.5-1.4,15.1-2.5
		C593.6,359,594.7,356,593.9,352.6z M469.1,244.9l14.4-60.3c1.8-7.3,3.4-15.1,4.9-23.1c1.5-7.9,2.9-15.6,4.2-23
		c1.3-7.4,2.6-14.6,3.8-21.4c0-0.2,0.1-0.4,0.1-0.6c0,0.2,0.1,0.3,0.1,0.5c1,6.9,2.2,14.1,3.6,21.7c1.3,7.6,2.8,15.3,4.5,23.1
		c1.6,7.8,3.4,15.4,5.2,22.8l14.4,60.3H469.1z"/>
	<path fill="#FFFFFF" d="M742.8,259.7c-0.2-1.7-0.4-3.3-0.8-4.7c-0.4-1.4-0.7-2.6-1-3.6c-3.4,0.3-7.2,0.7-11.4,1
		c-3.8,0.4-8,0.5-12.7,0.5h-14.2l1.5-200.7c-2.8-1.7-6.1-3.2-10.1-4.4c-4-1.2-8.5-1.8-13.7-1.8c-6.9,0-13.3,2.4-19.2,7.2
		c-6.5,5.5-13.8,13.8-21.7,24.8c-7.9,11-15.9,23.3-23.8,36.7c-7.9,13.5-15.6,27.6-23,42.4c-7.4,14.8-14,28.7-19.9,41.6
		c-4.7,10.3-8.6,19.8-11.7,28.3c-0.8,2.2-1.5,4.3-2.2,6.3c-3.5,10.2-5.2,17.3-5.2,21.5c0,5.9,0.9,12.2,2.6,19.1
		c1.7,6.9,5.3,12.9,10.9,18.1h93.6v67.2c10.4,0,18.4-0.1,24.1-0.2c5.7-0.2,9.8-0.7,12.4-1.6c2.6-0.8,4.1-2.1,4.7-3.9
		c0.5-1.7,0.8-4.3,0.8-7.8v-53.8h26.4c4.8,0,8.3-2.6,10.3-7.8c2.1-5.2,3.3-11.2,3.6-18.1C743,263.7,742.9,261.4,742.8,259.7z
		 M660.8,253h-70.9c2.8-11.7,7.2-24.7,13.2-38.8c6-14.1,12.7-28.2,19.9-42.2c7.2-14,14.8-27,22.5-39.1c7.8-12.1,14.7-21.7,21-29
		L660.8,253z"/>
	<g>
		<polygon fill="#313280" points="239.5,151.1 239.5,141 239.5,111.7 155.1,111.7 155.1,295 278.8,295 278.8,151.1 249.5,151.1 		
			"/>
		<polygon fill="#313280" points="249.5,141 278.8,141 249.5,111.7 		"/>
		<path fill="#313280" d="M216.9,43.5c-88.3,0-159.8,71.6-159.8,159.8s71.6,159.8,159.8,159.8s159.8-71.6,159.8-159.8
			S305.2,43.5,216.9,43.5z M288.9,305.1H145V101.6h104.5l39.4,39.4V305.1z"/>
	</g>
	<g>
		<path fill="#313280" d="M742.8,259.7c-0.2-1.7-0.4-3.3-0.8-4.7c-0.4-1.4-0.7-2.6-1-3.6c-3.4,0.3-7.2,0.7-11.4,1
			c-3.8,0.4-8,0.5-12.7,0.5h-14.2l1.5-200.7c-2.8-1.7-6.1-3.2-10.1-4.4c-4-1.2-8.5-1.8-13.7-1.8c-6.9,0-13.3,2.4-19.2,7.2
			c-6.5,5.5-13.8,13.8-21.7,24.8c-7.9,11-15.9,23.3-23.8,36.7c-7.9,13.5-15.6,27.6-23,42.4c-7.4,14.8-14,28.7-19.9,41.6
			c-4.7,10.3-8.6,19.8-11.7,28.3c-0.8,2.2-1.5,4.3-2.2,6.3c-3.5,10.2-5.2,17.3-5.2,21.5c0,5.9,0.9,12.2,2.6,19.1
			c1.7,6.9,5.3,12.9,10.9,18.1h93.6v67.2c10.4,0,18.4-0.1,24.1-0.2c5.7-0.2,9.8-0.7,12.4-1.6c2.6-0.8,4.1-2.1,4.7-3.9
			c0.5-1.7,0.8-4.3,0.8-7.8v-53.8h26.4c4.8,0,8.3-2.6,10.3-7.8c2.1-5.2,3.3-11.2,3.6-18.1C743,263.7,742.9,261.4,742.8,259.7z
			 M660.8,253h-70.9c2.8-11.7,7.2-24.7,13.2-38.8c6-14.1,12.7-28.2,19.9-42.2c7.2-14,14.8-27,22.5-39.1c7.8-12.1,14.7-21.7,21-29
			L660.8,253z"/>
	</g>
</g>
<g>
	<g>
		<rect x="72" y="-108.1" fill="#313280" width="56.7" height="56.7"/>
	</g>
	<g>
		<rect x="170.7" y="-108.1" fill="#9A2C7C" width="56.7" height="56.7"/>
	</g>
	<g>
		<rect x="269.5" y="-108.1" fill="#9A5324" width="56.7" height="56.7"/>
	</g>
	<g>
		<rect x="368.2" y="-108.1" fill="#99942E" width="56.7" height="56.7"/>
	</g>
	<g>
		<rect x="466.9" y="-108.1" fill="#2F9755" width="56.7" height="56.7"/>
	</g>
</g>
</svg>
