<?xml version="1.0" encoding="utf-8"?>
<!-- Generator: Adobe Illustrator 16.0.0, SVG Export Plug-In . SVG Version: 6.00 Build 0)  -->
<!DOCTYPE svg PUBLIC "-//W3C//DTD SVG 1.1//EN" "http://www.w3.org/Graphics/SVG/1.1/DTD/svg11.dtd">
<svg version="1.1" id="Capa_1" xmlns="http://www.w3.org/2000/svg" xmlns:xlink="http://www.w3.org/1999/xlink" x="0px" y="0px"
	 width="800px" height="413.055px" viewBox="0 0 800 413.055" enable-background="new 0 0 800 413.055" xml:space="preserve">
<g>
	<g>
		<g>
			<polygon fill="#2D2E83" points="226.591,163.411 226.591,155.121 226.591,130.927 157.017,130.927 157.017,282.13 
				259.057,282.13 259.057,163.411 234.881,163.411 			"/>
			<polygon fill="#2D2E83" points="234.881,155.121 259.067,155.121 234.881,130.927 			"/>
			<path fill="#2D2E83" d="M208.035,74.723c-72.796,0-131.807,59.011-131.807,131.805c0,72.795,59.011,131.805,131.807,131.805
				c72.795,0,131.806-59.01,131.806-131.805C339.84,133.734,280.83,74.723,208.035,74.723z M267.342,290.422H148.726V122.639h86.155
				v-0.004l32.461,32.486V290.422z"/>
		</g>
	</g>
	<g>
		<path fill="#2D2E83" d="M517.6,304.821l-12.084-33.305h-84.293l-12.378,33.305h-47.747l76.04-196.585H489.6l75.746,196.585H517.6z
			 M463.37,150.088l-30.651,84.587h61.304L463.37,150.088z"/>
		<path fill="#2D2E83" d="M654.989,304.821v-40.673h-94.02v-33.01l78.104-122.903h57.767v119.072h25.347v36.841H696.84v40.673
			H654.989z M654.989,145.372l-53.051,81.935h53.051V145.372z"/>
	</g>
</g>
</svg>
